<svg xmlns="http://www.w3.org/2000/svg" viewBox="0 0 127.16 70.36"><g id="Layer_2" data-name="Layer 2"><path d="M125.89,56.5c-.72-1.76-1.31-3.58-2.07-5.34a15.42,15.42,0,0,1-1-2.68c-.26-1.17-.2-2.38-.45-3.55a7,7,0,0,0-3.46-4.62l1.39.39c0-1.77-.07-3.55-.11-5.33a.54.54,0,0,0-.13-.41.51.51,0,0,0-.42-.07,6.23,6.23,0,0,0-3.28,1.5.91.91,0,0,1-.44.26c-.32.05-.56-.27-.78-.52A5.53,5.53,0,0,0,113,35c-4.15-1.69-6.88-5.61-9.37-9.34A86.79,86.79,0,0,1,97.79,16c-.94-1.9-1.65-3.27-3.39-4.43C92.48,10.33,90.63,9,88.61,7.92a18.14,18.14,0,0,0-8.07-2.25,30.13,30.13,0,0,1-4.94-.25c-3.52-.72-6.4-3.68-10-3.88a31.2,31.2,0,0,0-3.72.28c-3,.18-6-.85-9.09-1.2-7.15-.82-14.49,2.1-21.49.44-2-.47-3.91-1.29-5.9-1A10.41,10.41,0,0,0,23,.79,95,95,0,0,0,12.18,6,9.13,9.13,0,0,0,10,7.6a10.29,10.29,0,0,0-3.68,6.57,50.31,50.31,0,0,0-.38,8c-.06,2.73-.35,5.46-.64,8.18a12.83,12.83,0,0,1-1,4.34c-.91,1.87-2.7,3.22-3.5,5.14C-.42,42.66.87,46,0,49a24.18,24.18,0,0,1,3.42-4.19c1.22-1.2,2.65-2.39,3-4.06a19.3,19.3,0,0,0-.08-3.56c0-1.66.73-3.22,1.08-4.85a28.14,28.14,0,0,0,.3-6.16A63.34,63.34,0,0,1,8.84,13.84q.06,3.94.14,7.91c0,2.46.79,4.68,1,7.13.35,3.92.84,8.35.07,12.24-.73,3.63-5,6.23-4.38,10.18a12.36,12.36,0,0,0,.78,2.34A14.08,14.08,0,0,1,5.76,65c-.29.56-.57,1.37,0,1.71.26.17.59.12.89.21.72.21.94,1.1,1.3,1.77A3.41,3.41,0,0,0,12.48,70c-3-7.59.87-14.4,3.6-21.32.9-2.27,1.47-4.68,2.47-6.92a10.72,10.72,0,0,1,4.68-5.47c-1.56,1.68-3.18,3.46-3.71,5.69s.48,5,2.7,5.59a1.69,1.69,0,0,1,.65.23c.75.54,0,1.89.57,2.62s1.64.2,1.92-.56a3.22,3.22,0,0,0-.24-2.23q6.3,4.62,12.28,9.63c1.75,1.47,3.61,3.23,3.68,5.51,0,.83,0,2,.81,2.14.39.09.8-.13,1.19,0,.65.17.75,1,1,1.63a3.16,3.16,0,0,0,2.75,1.71,9.37,9.37,0,0,0,3.34-.59c-.1-1-1.3-1.53-2.14-2.16-2.36-1.81-2-5.52-3.71-8a15.52,15.52,0,0,0-1.57-1.77,18.77,18.77,0,0,1-4.88-10.45q-1.38-.14-2.76-.15a10.38,10.38,0,0,1,4.25-1.36A37.29,37.29,0,0,0,60.05,44c1.62-.45,3.21-1,4.81-1.5a10.15,10.15,0,0,1,1.42-.35,76.8,76.8,0,0,1-1.73,9.49c-1,4.18-2,8.56-4.91,11.72a1.37,1.37,0,0,0-.46.8c0,.34.23.63.3,1,.12.61-.35,1.19-.32,1.8a1.55,1.55,0,0,0,1.17,1.31,4.27,4.27,0,0,0,1.85,0,.73.73,0,0,0,.46-.15.76.76,0,0,0,.19-.47A30.93,30.93,0,0,1,66,59.34a25.57,25.57,0,0,1,2.81-4.76c1.17-1.45,2.65-2.65,3.6-4.25.63-1.07,1-2.29,1.69-3.32a10.12,10.12,0,0,1,1.79-1.91c2.23,1.46,4.54,3.93,4.3,6.62a8.35,8.35,0,0,0-.27,2.61,6.37,6.37,0,0,0,.73,1.48c1.5,2.7.66,6,.86,9.12A1.72,1.72,0,0,0,82,66.16c.32.26.79.28,1.08.57s.34.83.48,1.27a2.69,2.69,0,0,0,2.27,1.7,8,8,0,0,0,3-.32c-.3-1.7-1.72-3-2.53-4.49a11,11,0,0,1-.77-6.52,49.28,49.28,0,0,0,.8-6.61c0-3.15-1.2-6.41-.12-9.37.21,1.66.42,3.32.62,5,.17,1.33,2,.29,2.76.07a11,11,0,0,0,2.48-1c1.36-.8,2.5-2.7,4.16-2.81s3.06,1.33,4.73,1.17a3.84,3.84,0,0,1,1.64-.1c.73.26,1,1.18,1.65,1.59.35.21.77.27,1.13.47,1.27.72,1,2.65,1.65,3.94.83,1.54,2.91,1.83,4.34,2.84a11.63,11.63,0,0,1,2.49,2.87,23.46,23.46,0,0,0,6.12,5.8,4,4,0,0,0,1.84.77,4.29,4.29,0,0,0,1.5-.24,12.59,12.59,0,0,1,2.69-.6,1.21,1.21,0,0,0,.82-.22,1,1,0,0,0,.23-.45C127.54,59.52,126.61,58.25,125.89,56.5Z"/></g></svg>