<svg width="203" height="269" viewBox="0 0 203 269" fill="none" xmlns="http://www.w3.org/2000/svg">
<path d="M1 125H201.5V253C201.5 261.837 194.337 269 185.5 269H17C8.16344 269 1 261.837 1 253V125Z" fill="#323232"/>
<rect x="54" y="162" width="22" height="22" rx="4" fill="#484848"/>
<rect x="90" y="162" width="22" height="22" rx="4" fill="#5A6BFF"/>
<rect x="126" y="162" width="22" height="22" rx="4" fill="#484848"/>
<rect x="162" y="162" width="22" height="22" rx="4" fill="#484848"/>
<rect x="18" y="194" width="22" height="22" rx="4" fill="#484848"/>
<rect x="54" y="194" width="22" height="22" rx="4" fill="#484848"/>
<rect x="90" y="194" width="22" height="22" rx="4" fill="#484848"/>
<rect x="126" y="194" width="22" height="22" rx="4" fill="#5A6BFF"/>
<rect x="162" y="194" width="22" height="22" rx="4" fill="#5A6BFF"/>
<rect x="18" y="226" width="22" height="22" rx="4" fill="#484848"/>
<rect x="54" y="226" width="22" height="22" rx="4" fill="#5A6BFF"/>
<rect x="90" y="226" width="22" height="22" rx="4" fill="#484848"/>
<rect x="1" y="125" width="200.5" height="16" fill="#323232"/>
<path d="M26.3215 45.1142C19.7334 51.7861 16.8812 58.4355 16.4921 61.9273C16.0644 65.7653 16.9224 75.6574 17.7831 79.519C18.2858 81.7746 18.6437 87.6713 16.4921 89.3875C13.6526 91.6524 14.0535 94.5363 15.6314 98.827C17.3527 97.1107 20.5671 94.1483 19.0741 90.6747C17.7831 87.6713 19.0741 87.7138 19.0741 85.5259C19.0741 83.8097 19.5044 80.8062 18.6437 77.8028C17.7831 74.7993 17.4078 67.2514 17.3527 66.6471C16.9224 61.9273 18.3394 58.5469 18.6437 57.6367C18.8121 57.133 20.1009 54.7816 21.7105 52.1059C22.7694 49.7387 24.2146 47.6093 25.8792 45.7054C26.0298 45.4997 26.1775 45.3022 26.3215 45.1142Z" fill="#323232"/>
<path fill-rule="evenodd" clip-rule="evenodd" d="M83.194 34.4671C67.5708 32.9094 47.0458 33.1799 40.1605 35.3253C36.6766 37.0292 32.3238 39.5517 28.5414 42.9977C27.6125 43.8441 26.718 44.7461 25.8792 45.7054C24.5681 47.4963 23.0313 49.9103 21.7105 52.1059C19.9667 56.0041 19.2701 60.547 20.3651 65.7889C22.4183 75.6185 28.9718 83.3806 23.8077 91.1038C19.7913 97.1107 21.2257 102.689 22.9471 107.837C23.8077 112.986 29.3785 121.138 22.9471 121.138C16.0617 121.138 7.88536 122.426 1 125H173.564C165.531 124.857 158.503 121.567 152.048 120.709C150.977 120.567 147.5 120.5 146 119.5C144.5 118 143.806 117.112 143 115.5C142.51 114.521 141 112.5 142 108C142.5 103.5 142.495 99 142 95.5C141.226 90.0318 140 86.5 140 82.5C142 77 142.106 73.6425 142.58 72.2249C143.441 69.6505 144.732 66.218 149.466 63.2145C163.731 54.163 161.596 49.0437 166.249 49.9135C173.134 51.2007 178.324 50.5515 183.462 53.346C188.196 55.9204 187.765 58.9239 195.081 59.782C199.384 58.9239 204.452 54.4957 200.675 51.2007C190.347 42.1903 191.208 30.1765 187.335 29.3183C183.462 28.4602 179.485 24.3432 183.462 22.8824C191.638 19.8789 192.929 15.5882 190.347 16.8754C186.474 18.8062 184.036 19.0208 181.741 19.0208C186.56 7.35017 179.732 2.14418 175.716 1C179.589 8.72318 181.966 20.4918 166.249 16.8754C155.06 14.301 151.187 22.0242 139.998 22.0242C122.523 22.0242 119.342 21.3091 109.014 25.8858C101.698 29.1276 100.407 36.1834 83.194 34.4671ZM107.293 117.277C113.834 108.009 121.207 98.5409 124.076 94.9654C126.217 93.6436 129 91 131 91.5C132.534 91.8835 132.5 98 134 100.5C135.608 103.18 137 106.5 137.5 108.5C137.883 110.034 139.813 115.707 138 117.5C135.753 119.723 130.342 118.078 126.5 118C120.747 117.883 113.174 116.133 107.293 117.277ZM47.9065 115.561C47.0458 114.273 37.1481 103.118 31.1234 99.2561C26.67 103.062 29.1413 108.906 31.0028 113.309C31.6595 114.862 32.2404 116.236 32.4144 117.277C32.8448 119.851 33.7055 120.28 41.8818 120.28C48.7672 120.28 49.6278 118.135 47.9065 115.561ZM97.395 93.2491C101.843 89.5537 105.141 89.3875 109.014 94.9654C109.444 97.5398 108.584 98.3979 108.584 106.55C108.584 109.16 104.338 116.797 100.838 114.702C92.231 109.554 87.7855 110.268 81.4726 113.415C78.8906 114.702 68.9929 118.564 63.8289 118.564C60.3862 118.564 50.9188 114.702 48.7672 108.266C46.5729 101.703 52.732 101.917 55.2222 94.9654C59.5255 82.9516 66.253 90.4945 71.5749 93.6782C75.8783 96.2526 94.813 95.3945 97.395 93.2491Z" fill="#323232"/>
<path d="M28.5414 42.9977C32.3238 39.5517 36.6766 37.0292 40.1605 35.3253C47.0458 33.1799 67.5708 32.9094 83.194 34.4671C100.407 36.1834 101.698 29.1276 109.014 25.8858C119.342 21.3091 122.523 22.0242 139.998 22.0242C151.187 22.0242 155.06 14.301 166.249 16.8754C181.966 20.4918 179.589 8.72318 175.716 1C179.732 2.14418 186.56 7.35017 181.741 19.0208C184.036 19.0208 186.474 18.8062 190.347 16.8754C192.929 15.5882 191.638 19.8789 183.462 22.8824C179.485 24.3432 183.462 28.4602 187.335 29.3183C191.208 30.1765 190.347 42.1903 200.675 51.2007C204.452 54.4957 199.384 58.9239 195.081 59.782C187.765 58.9239 188.196 55.9204 183.462 53.346C178.324 50.5515 173.134 51.2007 166.249 49.9135C161.596 49.0437 163.731 54.163 149.466 63.2145C144.732 66.218 143.441 69.6505 142.58 72.2249C142.106 73.6425 142 77 140 82.5C140 86.5 141.226 90.0318 142 95.5C142.495 99 142.5 103.5 142 108C141 112.5 142.51 114.521 143 115.5C143.806 117.112 144.5 118 146 119.5C147.5 120.5 150.977 120.567 152.048 120.709C158.503 121.567 165.531 124.857 173.564 125H1C7.88536 122.426 16.0617 121.138 22.9471 121.138C29.3785 121.138 23.8077 112.986 22.9471 107.837C21.2257 102.689 19.7913 97.1107 23.8077 91.1038C28.9718 83.3806 22.4183 75.6185 20.3651 65.7889C19.2701 60.547 19.9667 56.0041 21.7105 52.1059M28.5414 42.9977C27.6125 43.8441 26.718 44.7461 25.8792 45.7054M28.5414 42.9977C28.11 42.9977 27.2999 43.8367 26.3215 45.1142M28.5414 42.9977C27.7585 43.701 27.0191 44.4077 26.3215 45.1142M25.8792 45.7054C24.5681 47.4963 23.0313 49.9103 21.7105 52.1059M25.8792 45.7054C24.2146 47.6093 22.7694 49.7387 21.7105 52.1059M25.8792 45.7054C26.0298 45.4997 26.1775 45.3022 26.3215 45.1142M21.7105 52.1059C20.1009 54.7816 18.8121 57.133 18.6437 57.6367C18.3394 58.5469 16.9224 61.9273 17.3527 66.6471C17.4078 67.2514 17.7831 74.7993 18.6437 77.8028C19.5044 80.8062 19.0741 83.8097 19.0741 85.5259C19.0741 87.7138 17.7831 87.6713 19.0741 90.6747C20.5671 94.1483 17.3527 97.1107 15.6314 98.827C14.0535 94.5363 13.6526 91.6524 16.4921 89.3875C18.6437 87.6713 18.2858 81.7746 17.7831 79.519C16.9224 75.6574 16.0644 65.7653 16.4921 61.9273C16.8812 58.4355 19.7334 51.7861 26.3215 45.1142M124.076 94.9654C121.207 98.5409 113.834 108.009 107.293 117.277C113.174 116.133 120.747 117.883 126.5 118C130.342 118.078 135.753 119.723 138 117.5C139.813 115.707 137.883 110.034 137.5 108.5C137 106.5 135.608 103.18 134 100.5C132.5 98 132.534 91.8835 131 91.5C129 91 126.217 93.6436 124.076 94.9654ZM31.1234 99.2561C37.1481 103.118 47.0458 114.273 47.9065 115.561C49.6278 118.135 48.7672 120.28 41.8818 120.28C33.7055 120.28 32.8448 119.851 32.4144 117.277C32.2404 116.236 31.6595 114.862 31.0028 113.309C29.1413 108.906 26.67 103.062 31.1234 99.2561ZM109.014 94.9654C105.141 89.3875 101.843 89.5537 97.395 93.2491C94.813 95.3945 75.8783 96.2526 71.5749 93.6782C66.253 90.4945 59.5255 82.9516 55.2222 94.9654C52.732 101.917 46.5729 101.703 48.7672 108.266C50.9188 114.702 60.3862 118.564 63.8289 118.564C68.9929 118.564 78.8906 114.702 81.4726 113.415C87.7855 110.268 92.231 109.554 100.838 114.702C104.338 116.797 108.584 109.16 108.584 106.55C108.584 98.3979 109.444 97.5398 109.014 94.9654Z" stroke="#323232"/>
<path d="M112 23.5C105 27.5 93.9998 35 87.9998 34C84.9998 34.5 82.1321 38.9804 80.9998 42C79.4999 46 86.4999 47.5 89.4999 56.5C92.4999 65.5 98.4998 60 107 53C115.5 46 134 60 138 52C142.904 42.1918 132.5 43 129.5 38C126.765 33.4424 120.191 18.8194 112 23.5Z" fill="#484848"/>
<path d="M54.4999 47C48.2095 45.5199 46.5 33.5 43 34C31.5 36.5 20.9999 48.5 22.4999 50.5C28.5743 58.5995 25.7069 66.8827 31 69C33.5 70 40.233 63.3233 47 64C52 64.5 51.9481 74.6237 61.4999 73.5C70 72.5 60.1758 59.8846 61 57C62 53.5 63 49 54.4999 47Z" fill="#484848"/>
<path d="M104 73C100.5 75 90.5 68.5 82.5 75.5C81.1667 77.8333 79.4 87.1 83 89.5C87.5 92.5 91.7325 85.1221 100 86.5C109 88 103.408 84.8244 116.5 89.5C123.5 92 123.226 81.3151 127.5 80C134 78 135 67.5 127.5 63.5C120 59.5 108.615 70.363 104 73Z" fill="#484848"/>
<path d="M195 60.5C199.707 59.9116 204.466 52.911 202 52.5C199 52 195.036 53.8415 191 47.5C187.5 42 198 43 183 39C180.183 38.2488 179.5 42 173.5 44.5C170.269 45.8461 171 51.5 175.5 51.5C181.521 51.5 191 61 195 60.5Z" fill="#484848"/>
<path d="M36 76.5C34.3845 78.6541 30 82 24.7037 80.5C25.2037 81 25.5 86.5 24.5 89C25.8333 90.3333 28.9 92.2 30.5 89C32.5 85 40.9261 86.5739 43.5 84C45.5 82 39 72.5 36 76.5Z" fill="#484848"/>
<path d="M155.5 17C148 20.5 140.5 22 137.5 21.5C136.5 22 136.5 22 136 24C135.5 26 140.5 27.5 143 25.5C145.5 23.5 157 26.5 159 25C161 23.5 161.477 14.2106 155.5 17Z" fill="#484848"/>
<path d="M96.318 69.5635L118.136 59.5638" stroke="#5A6BFF" stroke-width="4" stroke-linecap="round"/>
<path d="M96.318 69.5635L70 45" stroke="#5A6BFF" stroke-width="2" stroke-linecap="round"/>
<circle cx="96.318" cy="69.5635" r="4" fill="white"/>
</svg>
